<svg xmlns="http://www.w3.org/2000/svg" viewBox="0 0 32 32" fill="none">
  <rect width="32" height="32" rx="8" fill="#6366f1"/>
  <path d="M16 7C11.03 7 7 11.03 7 16s4.03 9 9 9 9-4.03 9-9-4.03-9-9-9zm.75 14.5v1.25h-1.5V21.5c-1.66-.3-3-1.47-3-2.75h1.5c0 .69.9 1.25 2 1.25s2-.56 2-1.25c0-.7-.66-1.05-2.22-1.44C13.82 17 12 16.53 12 14.75c0-1.28 1.34-2.45 3-2.75v-1.25h1.5V12c1.66.3 3 1.47 3 2.75h-1.5c0-.69-.9-1.25-2-1.25s-2 .56-2 1.25c0 .69.66 1.05 2.22 1.44 1.71.42 3.53.89 3.53 2.81 0 1.28-1.34 2.45-3 2.75z" fill="white"/>
</svg>
